<?xml version="1.0" encoding="UTF-8" standalone="no"?><!DOCTYPE svg PUBLIC "-//W3C//DTD SVG 1.1//EN" "http://www.w3.org/Graphics/SVG/1.1/DTD/svg11.dtd"><svg width="100%" height="100%" viewBox="0 0 3508 4961" version="1.1" xmlns="http://www.w3.org/2000/svg" xmlns:xlink="http://www.w3.org/1999/xlink" xml:space="preserve" xmlns:serif="http://www.serif.com/" style="fill-rule:evenodd;clip-rule:evenodd;stroke-linejoin:round;stroke-miterlimit:2;"><rect id="all-icons" serif:id="all icons" x="0" y="0.328" width="3507.87" height="4960.63" style="fill:none;"/><g><g transform="matrix(0.775414,0,0,1,423.014,0)"><g transform="matrix(459.325,0,0,459.325,3589.63,3576.97)"></g><text x="2118.41px" y="3576.97px" style="font-family:'Belleza-Regular', 'Belleza';font-size:459.325px;fill:#6c2d46;">F O R K</text></g><g><path d="M1563.13,3198.53l3.878,-0.207c0.14,1.682 0.12,1.681 0.284,3.363c3.128,32.064 3.049,70.956 9.464,98.401c8.001,34.226 23.043,38.53 37.689,37.922c19.323,-0.801 39.704,-5.399 61.944,-8.751c18.847,-2.839 48.91,-6.527 75.889,5.346c25.415,11.184 39.899,31.332 48.755,46.675c1.445,2.504 7.221,13.092 11.986,25.637c10.869,28.619 15.831,57.779 16.459,61.258c0.576,3.191 3.467,19.211 5.868,40.107c0.761,6.621 3.315,31.945 4.429,57.377c0.274,6.253 1.617,36.89 1.291,78.234c-0.097,12.398 -0.635,31.554 -0.712,34.297c-0.106,-1.132 -3.67,-39.917 -7.858,-73.297c-0.568,-4.526 -3.475,-27.689 -8.188,-56.43c-0.647,-3.946 -4.091,-24.943 -9.35,-49.105c-0.783,-3.598 -4.782,-22.472 -12.028,-46.303c-2.444,-8.036 -7.997,-25.738 -17.31,-44.674c-9.597,-19.512 -18.714,-29.442 -20.302,-31.244c-21.969,-24.91 -48.052,-26.67 -73.62,-25.352c-21.989,1.134 -44.708,5.454 -69.117,5.751c-11.632,0.142 -24.262,-0.065 -36.496,-8.993c-20.487,-14.949 -24.31,-46.116 -24.591,-76.645c-0.095,-10.359 0.641,-29.226 0.74,-31.767c0.502,-12.882 1.093,-25.803 1.101,-38.247c0.001,-1.339 0.006,-1.339 -0.001,-1.455c-0.059,-0.956 -0.146,-0.944 -0.204,-1.898Z" style="fill:#6c2d46;"/><path d="M2017.68,3198.32l3.878,0.207c-0.042,0.635 -0.162,1.263 -0.204,1.898c-0.066,1.015 0.053,8.13 0.065,8.837c0.539,32.106 3.998,66.583 -0.565,95.379c-2.829,17.854 -10.633,46.391 -41.423,51.936c-2.046,0.368 -8.518,1.533 -25.983,0.685c-25.886,-1.257 -48.76,-5.954 -72.924,-5.794c-22.423,0.148 -43.948,5.326 -62.356,27.056c-1.524,1.8 -11.333,12.756 -21.415,34.728c-4.127,8.995 -10.643,23.147 -19.586,55.683c-0.161,0.585 -5.79,20.032 -12.537,55.477c-0.761,3.995 -4.031,21.173 -8.308,50.148c-2.751,18.635 -4.885,35.979 -6.446,49.741c-2.837,24.999 -5.138,49.57 -5.542,53.885c-0.362,-12.869 -1.222,-40.956 -0.438,-80.24c0.382,-19.099 1.024,-32.66 1.28,-37.997c0.492,-10.225 1.563,-23.693 1.727,-25.751c0.88,-11.061 2.824,-34.753 7.811,-63.238c0.94,-5.371 3.821,-22.25 9.899,-42.931c5.418,-18.437 10.67,-30.759 15.981,-41.07c10.57,-20.523 21.721,-31.323 26.097,-35.378c20.045,-18.581 42.527,-24.495 64.897,-25.127c22.146,-0.626 42.448,3.844 69.818,8.296c0.243,0.039 17.013,2.928 29.937,3.299c20.009,0.574 33.996,-11.035 39.897,-56.888c3.274,-25.435 3.779,-55.608 6.156,-79.478c0.168,-1.682 0.142,-1.68 0.284,-3.363Z" style="fill:#6c2d46;"/></g><g transform="matrix(0.825793,0,0,1,17.5315,0)"><g transform="matrix(467.757,0,0,467.757,1809.52,3574.99)"></g><text x="339.832px" y="3574.99px" style="font-family:'Belleza-Regular', 'Belleza';font-size:467.757px;fill:#371f16;">T R U E</text></g></g><g><g transform="matrix(0.811236,0,0,1,222.93,-2.27374e-13)"><g transform="matrix(585.663,0,0,585.663,3356.36,2180.61)"></g><text x="1480.49px" y="2180.61px" style="font-family:'Belleza-Regular', 'Belleza';font-size:585.663px;fill:#6c2d46;">F O R K</text></g><g><path d="M1283.03,1262.81l8.126,0.435c-0.099,1.332 -0.309,2.655 -0.408,3.988c-0.056,0.761 0.027,9.895 0.035,10.755c0.444,48.872 4.826,104.876 3.617,151.305c-1.655,63.551 -11.909,129.095 -62.618,156.01c-21.771,11.555 -42.832,11.835 -58.944,11.886c-34.491,0.108 -71.457,-4.332 -91.075,-6.534c-28.966,-3.252 -52.44,-5.822 -80.057,-6.205c-36.338,-0.505 -61.518,4.912 -83.502,14.813c-7.988,3.597 -27.407,13.107 -47.826,34.88c-1.133,1.208 -8.478,9.078 -16.068,19.234c-1.731,2.315 -9.658,12.921 -19.64,30.336c-3.822,6.668 -9.982,17.741 -19.669,39.405c-17.605,39.367 -28.423,77.78 -33.702,96.093c-12.764,44.276 -20.829,84 -26.016,109.714c-8.84,43.833 -14.304,79.631 -18.371,105.902c-11.872,76.682 -18.538,142.937 -21.925,175.037c-3.012,28.543 -5.08,50.992 -5.987,60.674c-1.428,-50.894 -1.626,-76.208 -1.585,-104.517c0.081,-56.565 1.423,-103.398 3.264,-141.899c0.281,-5.879 3.645,-68.617 10.134,-121.2c5.648,-45.768 11.76,-78.724 16.23,-100.289c0.01,-0.05 2.772,-13.076 6.825,-29.116c9.317,-36.871 18.414,-62.194 24.516,-77.783c3.023,-7.724 7.289,-17.107 7.959,-18.579c10.995,-24.184 19.922,-38.206 23.946,-44.454c13.939,-21.641 25.486,-33.844 30.56,-39.108c16.595,-17.219 34.011,-30.144 53.539,-40.058c13.611,-6.91 38.894,-17.978 78.789,-20.972c30.004,-2.252 57.022,0.931 64.73,1.81c29.343,3.345 59.828,9.209 94.956,14.944c9.422,1.538 37.754,6.133 62.861,6.927c28.581,0.904 43.603,-11.053 53.256,-23.537c23.376,-30.229 30.041,-85.275 33.85,-126.946c4.082,-44.664 5.549,-96.322 9.761,-137.423c0.079,-0.774 0.098,-0.77 0.158,-1.529c0.159,-2.002 0.122,-2 0.281,-3.999Z" style="fill:#6c2d46;"/><path d="M328.476,1263.25l8.126,-0.435c0.106,1.332 0.175,2.667 0.281,3.999c0.341,4.285 1.777,14.243 4.401,57.335c1.86,30.553 3.755,69.145 7.913,105.044c7.512,64.87 23.005,109.755 56.305,122.742c14.142,5.516 28.583,4.4 36.514,3.931c25.348,-1.498 49.199,-5.559 76.808,-10.23c30.866,-5.222 66.692,-11.771 97.317,-13.361c29.551,-1.534 69.853,-0.39 108.245,16.173c28.98,12.502 48.027,29.116 58.737,39.478c13.417,12.98 22.514,24.867 29.202,34.36c13.097,18.591 20.984,34.289 23.956,40.207c1.296,2.579 8.105,16.134 14.83,32.896c4.937,12.305 9.71,26.766 10.486,29.117c9.826,29.768 16.525,57.743 20.701,76.763c0.058,0.266 2.549,11.916 5.494,28.238c8.606,47.698 12.739,87.888 13.528,95.569c4.11,39.964 6.839,80.966 8.006,107.119c0.593,13.295 3.494,78.308 2.802,166.323c-0.143,18.169 -0.844,47.203 -0.944,51.307c-0.243,10.072 -0.253,10.068 -0.552,20.718c-1.725,-18.416 -2.773,-30.441 -8.54,-84.897c-9.404,-88.802 -18.201,-143.275 -22.113,-168.454c-7.161,-46.094 -13.467,-78.135 -19.647,-107.93c-10.901,-52.556 -20.367,-84.496 -25.336,-101.57c-14.813,-50.885 -28.218,-80.199 -35.655,-96.13c-3.655,-7.828 -10.92,-22.992 -22.712,-41.688c-2.382,-3.776 -11.102,-17.704 -24.84,-32.967c-6.538,-7.264 -21.813,-23.18 -44.063,-34.607c-20.844,-10.705 -40.498,-13.969 -44.41,-14.655c-18.792,-3.3 -37.742,-3.71 -60.22,-2.775c-33.049,1.374 -67.902,6.51 -98.116,9.288c-7.945,0.73 -42.133,4.01 -71.552,2.763c-20.781,-0.88 -60.896,-6.963 -85.302,-52.267c-18.041,-33.49 -22.562,-79.116 -23.099,-126.616c-0.363,-32.143 2.544,-85.876 3.442,-119.583c0.386,-14.491 0.422,-23.715 0.417,-29.692c-0.001,-1.404 0.007,-1.404 -0.002,-1.525c-0.149,-2.003 -0.259,-1.988 -0.408,-3.988Z" style="fill:#6c2d46;"/></g><g transform="matrix(0.826219,0,0,1,200.823,0)"><g transform="matrix(585.663,0,0,585.663,3295.25,1666.12)"></g><text x="1455.1px" y="1666.12px" style="font-family:'Belleza-Regular', 'Belleza';font-size:585.663px;fill:#371f16;">T R U E</text></g></g></svg>