<?xml version="1.0" encoding="UTF-8" standalone="no"?><!DOCTYPE svg PUBLIC "-//W3C//DTD SVG 1.1//EN" "http://www.w3.org/Graphics/SVG/1.1/DTD/svg11.dtd"><svg width="100%" height="100%" viewBox="0 0 2163 1935" version="1.1" xmlns="http://www.w3.org/2000/svg" xmlns:xlink="http://www.w3.org/1999/xlink" xml:space="preserve" xmlns:serif="http://www.serif.com/" style="fill-rule:evenodd;clip-rule:evenodd;stroke-linejoin:round;stroke-miterlimit:2;"><rect id="icon-only" serif:id="icon only" x="0.801" y="0.866" width="2161.78" height="1933.96" style="fill:none;"/><g><path d="M1360.76,364.989l8.126,0.435c-0.099,1.333 -0.309,2.656 -0.408,3.988c-0.057,0.761 0.027,9.895 0.034,10.756c0.445,48.872 4.826,104.876 3.617,151.304c-1.654,63.552 -11.908,129.095 -62.617,156.01c-21.771,11.555 -42.832,11.836 -58.944,11.886c-34.491,0.108 -71.457,-4.331 -91.075,-6.533c-28.966,-3.252 -52.44,-5.823 -80.057,-6.206c-36.338,-0.504 -61.518,4.913 -83.503,14.813c-7.987,3.597 -27.406,13.107 -47.825,34.88c-1.133,1.209 -8.478,9.078 -16.068,19.234c-1.731,2.316 -9.658,12.922 -19.64,30.337c-3.822,6.668 -9.982,17.74 -19.67,39.404c-17.604,39.368 -28.422,77.781 -33.701,96.093c-12.764,44.276 -20.83,84 -26.016,109.715c-8.84,43.833 -14.304,79.631 -18.372,105.902c-11.871,76.682 -18.537,142.936 -21.925,175.036c-3.011,28.543 -5.079,50.992 -5.986,60.674c-1.429,-50.893 -1.626,-76.208 -1.585,-104.517c0.081,-56.565 1.423,-103.398 3.264,-141.899c0.281,-5.879 3.644,-68.616 10.134,-121.2c5.648,-45.767 11.76,-78.723 16.229,-100.288c0.011,-0.05 2.773,-13.076 6.826,-29.117c9.317,-36.87 18.413,-62.193 24.516,-77.783c3.023,-7.723 7.289,-17.107 7.959,-18.579c10.995,-24.183 19.922,-38.205 23.946,-44.453c13.939,-21.641 25.486,-33.844 30.56,-39.109c16.595,-17.219 34.011,-30.144 53.539,-40.058c13.611,-6.91 38.894,-17.978 78.789,-20.972c30.004,-2.252 57.022,0.932 64.73,1.81c29.343,3.346 59.828,9.209 94.956,14.944c9.422,1.538 37.754,6.133 62.861,6.927c28.581,0.904 43.603,-11.053 53.256,-23.536c23.376,-30.23 30.041,-85.275 33.849,-126.946c4.082,-44.665 5.55,-96.322 9.762,-137.424c0.079,-0.774 0.097,-0.769 0.158,-1.529c0.159,-1.998 0.122,-1.997 0.281,-3.999Z" style="fill:#6c2d46;"/><path d="M406.214,365.424l8.126,-0.435c0.106,1.332 0.175,2.667 0.281,3.999c0.341,4.285 1.777,14.244 4.4,57.335c1.86,30.554 3.756,69.145 7.913,105.045c7.513,64.87 23.005,109.754 56.305,122.741c14.143,5.516 28.584,4.4 36.515,3.932c25.348,-1.499 49.199,-5.56 76.808,-10.23c30.866,-5.222 66.692,-11.772 97.317,-13.362c29.551,-1.534 69.853,-0.389 108.245,16.173c28.98,12.503 48.027,29.117 58.737,39.478c13.417,12.98 22.514,24.868 29.202,34.361c13.097,18.59 20.983,34.289 23.956,40.206c1.296,2.58 8.105,16.135 14.83,32.897c4.937,12.305 9.71,26.765 10.486,29.116c9.825,29.768 16.525,57.743 20.7,76.763c0.059,0.266 2.55,11.917 5.495,28.238c8.606,47.699 12.738,87.889 13.528,95.57c4.109,39.963 6.839,80.965 8.006,107.119c0.593,13.294 3.494,78.307 2.801,166.323c-0.142,18.168 -0.844,47.202 -0.943,51.306c-0.243,10.073 -0.253,10.068 -0.552,20.718c-1.725,-18.416 -2.773,-30.44 -8.54,-84.897c-9.404,-88.802 -18.201,-143.274 -22.113,-168.454c-7.161,-46.094 -13.467,-78.134 -19.647,-107.93c-10.901,-52.556 -20.367,-84.496 -25.337,-101.569c-14.812,-50.886 -28.217,-80.199 -35.655,-96.13c-3.654,-7.828 -10.92,-22.993 -22.711,-41.688c-2.382,-3.777 -11.103,-17.705 -24.84,-32.968c-6.538,-7.263 -21.814,-23.18 -44.063,-34.606c-20.844,-10.705 -40.498,-13.969 -44.41,-14.656c-18.792,-3.3 -37.742,-3.709 -60.22,-2.775c-33.049,1.374 -67.903,6.51 -98.116,9.288c-7.946,0.731 -42.134,4.01 -71.552,2.764c-20.781,-0.881 -60.896,-6.964 -85.302,-52.268c-18.042,-33.49 -22.562,-79.116 -23.099,-126.616c-0.363,-32.143 2.544,-85.875 3.442,-119.583c0.386,-14.491 0.421,-23.715 0.417,-29.692c-0.001,-1.403 0.007,-1.403 -0.002,-1.525c-0.149,-2.002 -0.259,-1.988 -0.408,-3.988Z" style="fill:#6c2d46;"/></g></svg>